<svg width="204" height="48" viewBox="0 0 204 48" fill="none" xmlns="http://www.w3.org/2000/svg">
<path fill-rule="evenodd" clip-rule="evenodd" d="M3.187 8.81097V18.412C3.187 19.987 3.187 21.756 0 21.756V26.914C3.187 26.914 3.187 28.682 3.187 30.258V39.858C3.187 47.309 7.169 47.85 13.94 47.85V42.055C10.753 42.055 9.559 41.574 9.559 39.715V30.209C9.559 28.014 9.706 25.721 7.837 24.334C9.706 22.949 9.559 20.656 9.559 18.459V8.95497C9.559 7.09797 10.754 6.61497 13.94 6.61497V0.818971C7.169 0.817971 3.187 1.35897 3.187 8.81097ZM21.105 8.49997C19.364 10.008 18.494 12.174 18.494 14.996V17.531H14.857V22.828H18.494V42.024H26.397V22.828H31.293V17.531H26.397V15.723C26.397 14.803 26.661 14.094 27.189 13.596C27.717 13.098 28.472 12.85 29.451 12.85C29.932 12.85 32.389 12.858 32.389 12.858V6.71097C32.389 6.71097 28.002 6.66197 27.375 6.66197C25.467 6.66197 22.846 6.98997 21.105 8.49997V8.49997ZM35.865 12.836H43.769V6.71097H35.865V12.836V12.836ZM35.865 42.025H43.769V17.531H35.865V42.025V42.025ZM63.259 17.078C61.767 17.078 60.414 17.422 59.202 18.108C57.99 18.794 56.972 19.75 56.148 20.971L55.845 17.531H48.454V42.024H56.311V24.414C56.715 23.961 57.201 23.604 57.768 23.35C58.335 23.096 58.984 22.965 59.715 22.965C60.881 22.965 61.763 23.256 62.361 23.836C62.959 24.418 63.259 25.408 63.259 26.813V42.026H71.139V26.836C71.139 23.44 70.443 20.965 69.053 19.41C67.662 17.855 65.73 17.078 63.259 17.078V17.078ZM94.971 29.948C93.487 28.779 91.205 27.898 88.128 27.31C86.17 26.95 84.867 26.54 84.223 26.087C83.578 25.636 83.255 25.083 83.255 24.435C83.255 23.755 83.535 23.2 84.094 22.761C84.653 22.323 85.345 22.103 86.169 22.103C87.288 22.103 88.1 22.353 88.605 22.851C89.11 23.349 89.363 24.081 89.363 25.046H97.01L97.057 24.911C97.151 22.599 96.203 20.72 94.213 19.263C92.223 17.806 89.549 17.077 86.192 17.077C83.005 17.077 80.48 17.829 78.614 19.331C76.749 20.833 75.817 22.661 75.817 24.818C75.817 26.855 76.563 28.464 78.055 29.64C79.547 30.818 81.762 31.685 84.7 32.244C86.565 32.621 87.851 33.047 88.558 33.522C89.266 33.998 89.619 34.539 89.619 35.139C89.619 35.879 89.347 36.451 88.803 36.848C88.259 37.248 87.459 37.451 86.402 37.451C85.128 37.451 84.144 37.192 83.453 36.68C82.761 36.168 82.4 35.33 82.369 34.168H75.235L75.189 34.303C75.096 36.387 76.047 38.274 78.045 39.963C80.042 41.654 82.758 42.498 86.193 42.498C89.504 42.498 92.165 41.785 94.178 40.358C96.192 38.932 97.198 37.119 97.198 34.914C97.198 32.773 96.455 31.117 94.971 29.948V29.948ZM123.102 31.725H122.962L118.813 17.533H113.846L109.743 31.84H109.603L106.829 17.533H99.555L105.5 42.026H112.146L116.271 29.033H116.411L120.515 42.026H127.183L133.105 17.533H125.831L123.102 31.725V31.725ZM146.484 17.078C142.738 17.063 139.857 18.237 137.845 20.599C135.83 22.96 134.824 26.005 134.824 29.732V30.593C134.824 34.003 135.932 36.841 138.145 39.105C140.36 41.37 143.326 42.501 147.041 42.501C149.046 42.501 150.923 42.241 152.672 41.72C154.42 41.2 155.847 40.548 156.949 39.763L155.085 35.099C153.717 35.659 152.586 36.05 151.692 36.277C150.797 36.505 149.604 36.618 148.112 36.618C146.635 36.618 145.455 36.214 144.569 35.407C143.682 34.597 143.155 33.568 142.983 32.316L143.031 32.179H157.438V28.17C157.438 24.76 156.466 22.059 154.524 20.066C152.584 18.074 149.902 17.078 146.484 17.078V17.078ZM149.748 27.402H142.963L142.893 27.29C143.018 25.976 143.364 24.927 143.932 24.142C144.498 23.359 145.35 22.966 146.485 22.966C147.604 22.966 148.426 23.298 148.957 23.962C149.485 24.626 149.75 25.577 149.75 26.814L149.748 27.402V27.402ZM172.928 17.078C169.182 17.063 166.303 18.237 164.289 20.599C162.277 22.96 161.269 26.005 161.269 29.732V30.593C161.269 34.003 162.377 36.841 164.592 39.105C166.808 41.37 169.771 42.501 173.486 42.501C175.492 42.501 177.369 42.241 179.119 41.72C180.867 41.2 182.293 40.548 183.396 39.763L181.531 35.099C180.163 35.659 179.033 36.05 178.138 36.277C177.242 36.505 176.051 36.618 174.558 36.618C173.082 36.618 171.902 36.214 171.015 35.407C170.128 34.597 169.601 33.568 169.429 32.316L169.476 32.179H183.884V28.17C183.884 24.76 182.912 22.059 180.97 20.066C179.027 18.074 176.348 17.078 172.928 17.078V17.078ZM176.191 27.402H169.408L169.338 27.29C169.463 25.976 169.809 24.927 170.375 24.142C170.941 23.359 171.793 22.966 172.928 22.966C174.047 22.966 174.871 23.298 175.401 23.962C175.931 24.626 176.194 25.577 176.194 26.814V27.403H176.191V27.402V27.402ZM200.074 35.672C199.095 35.672 198.34 35.424 197.812 34.926C197.284 34.428 197.019 33.717 197.019 32.797V22.871H201.119V17.572H197.019V6.67197H189.116V17.572H185.478V22.871H189.116V33.524C189.116 36.346 189.986 38.512 191.726 40.022C193.466 41.533 196.086 41.86 197.997 41.86C198.625 41.86 203.012 41.811 203.012 41.811V35.664C203.012 35.664 200.557 35.672 200.074 35.672Z" fill="#24292E"/>
</svg>
