<svg width="36" height="36" viewBox="0 0 36 36" fill="none" xmlns="http://www.w3.org/2000/svg">
<path d="M2.92301 29.5361C2.00401 27.3521 3.01201 23.4691 3.45801 20.9711C3.90401 18.4731 5.68801 13.7441 6.40201 11.9601C7.11601 10.1761 10.15 5.35706 13.451 3.75106C16.752 2.14506 18.893 1.43206 19.696 2.77006C20.499 4.10806 21.124 5.00106 21.481 5.89306C21.838 6.78506 22.106 9.01506 19.875 8.92606C19.875 8.92606 20.231 10.5321 18.893 10.9781C17.555 11.4241 15.057 11.0681 13.897 10.8001C13.897 10.8001 12.31 11.9591 12.256 13.9221C12.202 15.8851 13.183 21.1491 11.666 23.0231C11.666 23.0231 13.719 22.1301 15.414 22.3981C15.414 22.3981 18.18 18.0811 24.336 18.1431C30.492 18.2051 34.239 21.6851 34.239 25.7891C34.239 29.8931 31.027 34.0861 25.585 34.0861C20.143 34.0861 5.28701 35.1571 2.92301 29.5361Z" fill="url(#paint0_linear)"/>
<path d="M2.92301 29.5361C2.00401 27.3521 3.01201 23.4691 3.45801 20.9711C3.90401 18.4731 5.68801 13.7441 6.40201 11.9601C7.11601 10.1761 10.15 5.35706 13.451 3.75106C16.752 2.14506 18.893 1.43206 19.696 2.77006C20.499 4.10806 21.124 5.00106 21.481 5.89306C21.838 6.78506 22.106 9.01506 19.875 8.92606C19.875 8.92606 20.231 10.5321 18.893 10.9781C17.555 11.4241 15.057 11.0681 13.897 10.8001C13.897 10.8001 12.31 11.9591 12.256 13.9221C12.202 15.8851 13.183 21.1491 11.666 23.0231C11.666 23.0231 13.719 22.1301 15.414 22.3981C15.414 22.3981 18.18 18.0811 24.336 18.1431C30.492 18.2051 34.239 21.6851 34.239 25.7891C34.239 29.8931 31.027 34.0861 25.585 34.0861C20.143 34.0861 5.28701 35.1571 2.92301 29.5361Z" stroke="#CC7400" stroke-linejoin="round"/>
<path d="M10.171 28.934C9.50204 26.124 10.618 24.34 11.666 23.024" stroke="#CC7400" stroke-miterlimit="10" stroke-linecap="round"/>
<path d="M16.127 25.979C16.796 27.529 18.202 30.875 23.488 30.875C28.774 30.875 29.979 28.198 30.247 27.663" stroke="#CC7400" stroke-miterlimit="10" stroke-linecap="round"/>
<path d="M13.896 10.8001C12.312 10.3991 11.688 8.79206 11.666 8.19006" stroke="#CC7400" stroke-miterlimit="10" stroke-linecap="round"/>
<path d="M18.9941 5.86259C17.8591 5.21477 16.3501 5.16026 16.0579 6.26012C15.7657 7.35997 17.4566 8.29329 19.7202 8.89394" stroke="#CC7400" stroke-miterlimit="10" stroke-linecap="round"/>
<defs>
<linearGradient id="paint0_linear" x1="18" y1="2.00006" x2="18" y2="34.1001" gradientUnits="userSpaceOnUse">
<stop stop-color="#FFC900"/>
<stop offset="0.74" stop-color="#FBB700"/>
<stop offset="1" stop-color="#F8A400"/>
</linearGradient>
</defs>
</svg>
